<svg width="80" height="80" viewBox="0 0 80 80" fill="none" xmlns="http://www.w3.org/2000/svg">
<rect width="80" height="80" fill="#ED3B3B"/>
<g clip-path="url(#clip0_46_503)">
<path d="M21 22.1875C21 21.8726 21.1251 21.5705 21.3478 21.3478C21.5705 21.1251 21.8726 21 22.1875 21H29.3125C29.6274 21 29.9295 21.1251 30.1522 21.3478C30.3749 21.5705 30.5 21.8726 30.5 22.1875C30.5 22.5024 30.3749 22.8045 30.1522 23.0272C29.9295 23.2499 29.6274 23.375 29.3125 23.375H23.375V29.3125C23.375 29.6274 23.2499 29.9295 23.0272 30.1522C22.8045 30.3749 22.5024 30.5 22.1875 30.5C21.8726 30.5 21.5705 30.3749 21.3478 30.1522C21.1251 29.9295 21 29.6274 21 29.3125V22.1875ZM49.5 22.1875C49.5 21.8726 49.6251 21.5705 49.8478 21.3478C50.0705 21.1251 50.3726 21 50.6875 21H57.8125C58.1274 21 58.4295 21.1251 58.6522 21.3478C58.8749 21.5705 59 21.8726 59 22.1875V29.3125C59 29.6274 58.8749 29.9295 58.6522 30.1522C58.4295 30.3749 58.1274 30.5 57.8125 30.5C57.4976 30.5 57.1955 30.3749 56.9728 30.1522C56.7501 29.9295 56.625 29.6274 56.625 29.3125V23.375H50.6875C50.3726 23.375 50.0705 23.2499 49.8478 23.0272C49.6251 22.8045 49.5 22.5024 49.5 22.1875ZM22.1875 49.5C22.5024 49.5 22.8045 49.6251 23.0272 49.8478C23.2499 50.0705 23.375 50.3726 23.375 50.6875V56.625H29.3125C29.6274 56.625 29.9295 56.7501 30.1522 56.9728C30.3749 57.1955 30.5 57.4976 30.5 57.8125C30.5 58.1274 30.3749 58.4295 30.1522 58.6522C29.9295 58.8749 29.6274 59 29.3125 59H22.1875C21.8726 59 21.5705 58.8749 21.3478 58.6522C21.1251 58.4295 21 58.1274 21 57.8125V50.6875C21 50.3726 21.1251 50.0705 21.3478 49.8478C21.5705 49.6251 21.8726 49.5 22.1875 49.5ZM57.8125 49.5C58.1274 49.5 58.4295 49.6251 58.6522 49.8478C58.8749 50.0705 59 50.3726 59 50.6875V57.8125C59 58.1274 58.8749 58.4295 58.6522 58.6522C58.4295 58.8749 58.1274 59 57.8125 59H50.6875C50.3726 59 50.0705 58.8749 49.8478 58.6522C49.6251 58.4295 49.5 58.1274 49.5 57.8125C49.5 57.4976 49.6251 57.1955 49.8478 56.9728C50.0705 56.7501 50.3726 56.625 50.6875 56.625H56.625V50.6875C56.625 50.3726 56.7501 50.0705 56.9728 49.8478C57.1955 49.6251 57.4976 49.5 57.8125 49.5Z" fill="white"/>
<path d="M35.9999 36.7273C38.4098 36.7273 40.3635 34.7736 40.3635 32.3636C40.3635 29.9537 38.4098 28 35.9999 28C33.5899 28 31.6362 29.9537 31.6362 32.3636C31.6362 34.7736 33.5899 36.7273 35.9999 36.7273Z" stroke="white" stroke-width="2" stroke-linecap="round"/>
<path d="M28 48.3637V45.4546C28 40.9484 31.6291 36.7273 36 36.7273C37.9993 36.7273 39.8433 37.6104 41.2559 39" stroke="white" stroke-width="2" stroke-linecap="round"/>
<path d="M42 42L42 45.6667L43.8333 45.6667L43.8333 47.5L42 47.5L42 49.3333L45.6667 49.3333L45.6667 45.6667L47.5 45.6667L47.5 49.3333L49.3333 49.3333L49.3333 47.5L53 47.5L53 45.6667L47.5 45.6667L47.5 42L42 42ZM45.6667 45.6667L43.8333 45.6667L43.8333 43.8333L45.6667 43.8333L45.6667 45.6667ZM53 49.3333L51.1667 49.3333L51.1667 51.1667L47.5 51.1667L47.5 53L53 53L53 49.3333ZM45.6667 53L45.6667 51.1667L42 51.1667L42 53L45.6667 53Z" fill="white"/>
<path d="M53 42L53 43.8333L50.1795 43.8333L50.1795 42L53 42Z" fill="white"/>
</g>
<defs>
<clipPath id="clip0_46_503">
<rect width="38" height="38" fill="white" transform="translate(21 21)"/>
</clipPath>
</defs>
</svg>
